HIERARCHY
ROOT hip
{
	OFFSET 0.000000 0.000000 0.000000 
	CHANNELS 6 Xposition Yposition Zposition Xrotation Zrotation Yrotation
	JOINT abdomen
	{
		OFFSET 0.000000 3.402643 0.000000 
		CHANNELS 3 Xrotation Zrotation Yrotation
		JOINT chest
		{
			OFFSET 0.000000 8.438565 -0.680529 
			CHANNELS 3 Xrotation Zrotation Yrotation
			JOINT neck
			{
				OFFSET 0.000000 10.207942 -0.272212 
				CHANNELS 3 Xrotation Zrotation Yrotation
				JOINT head
				{
					OFFSET 0.000000 3.130431 0.000000 
					CHANNELS 3 Xrotation Zrotation Yrotation
					End Site
					{
						OFFSET 0.000000 3.130435 0.000000 
					}
				}
			}
			JOINT lCollar
			{
				OFFSET 3.470700 6.669187 -0.816635 
				CHANNELS 3 Yrotation Zrotation Xrotation
				JOINT lShldr
				{
					OFFSET 3.198488 0.000000 0.000000 
					CHANNELS 3 Zrotation Yrotation Xrotation
					JOINT lForeArm
					{
						OFFSET 10.139888 0.000000 0.000000 
						CHANNELS 3 Yrotation Zrotation Xrotation
						JOINT lHand
						{
							OFFSET 8.370511 0.000000 0.000000 
							CHANNELS 3 Zrotation Yrotation Xrotation
							End Site
							{
								OFFSET 4.083176 0.000000 0.000000 
							}
						}
					}
				}
			}
			JOINT rCollar
			{
				OFFSET -3.470700 6.669187 -0.816635 
				CHANNELS 3 Yrotation Zrotation Xrotation
				JOINT rShldr
				{
					OFFSET -3.198488 0.000000 0.000000 
					CHANNELS 3 Zrotation Yrotation Xrotation
					JOINT rForeArm
					{
						OFFSET -10.139888 0.000000 0.000000 
						CHANNELS 3 Yrotation Zrotation Xrotation
						JOINT rHand
						{
							OFFSET -8.370511 0.000000 0.000000 
							CHANNELS 3 Zrotation Yrotation Xrotation
							End Site
							{
								OFFSET -4.083176 0.000000 0.000000 
							}
						}
					}
				}
			}
		}
	}
	JOINT lThigh
	{
		OFFSET 5.308129 -1.633274 1.361059 
		CHANNELS 3 Xrotation Zrotation Yrotation
		JOINT lShin
		{
			OFFSET -2.041588 -20.007561 0.000000 
			CHANNELS 3 Xrotation Zrotation Yrotation
			JOINT lFoot
			{
				OFFSET 0.000000 -19.190928 -1.224953 
				CHANNELS 3 Xrotation Yrotation Zrotation
				End Site
				{
					OFFSET 0.000000 -2.449906 4.627600 
				}
			}
		}
	}
	JOINT rThigh
	{
		OFFSET -5.308129 -1.633274 1.361059 
		CHANNELS 3 Xrotation Zrotation Yrotation
		JOINT rShin
		{
			OFFSET 2.041588 -20.007561 0.000000 
			CHANNELS 3 Xrotation Zrotation Yrotation
			JOINT rFoot
			{
				OFFSET 0.000000 -19.190928 -1.224953 
				CHANNELS 3 Xrotation Yrotation Zrotation
				End Site
				{
					OFFSET 0.000000 -2.449906 4.627600 
				}
			}
		}
	}
}
MOTION
Frames: 10
Frame Time: 0.016667
-0.730832 52.790630 0.689206 -7.864394 1.388692 9.065259 10.370935 -8.716507 -6.352993 14.050572 9.394417 8.305875 -8.783988 0.859023 1.640880 44.898403 1.356680 1.895156 1.992188 -2.001953 0.000341 -5.313500 -61.630573 -60.784359 -114.557579 -0.360598 5.376963 13.599864 -6.443633 -11.974970 -2.001953 1.992188 0.000000 -15.936910 57.715992 -75.270432 112.681358 0.093523 5.574691 -13.248130 6.419543 2.924928 -4.901938 10.163517 13.882255 14.164910 -3.859741 10.529034 3.444893 -0.140627 -0.761095 6.920613 -2.040668 -12.700863 14.868998 3.735407 -18.974880 -10.406612 -0.385959 1.034464 
-0.620532 52.803288 0.758889 -7.972717 1.558918 9.808461 10.370935 -8.716507 -6.352993 14.012785 9.491518 8.288219 -8.794124 0.673673 1.230613 44.711723 0.966493 1.435837 1.992188 -2.001953 0.000341 -6.439559 -61.084122 -59.645828 -113.449356 -0.342781 5.364987 14.215263 -8.084315 -12.723543 -2.001953 1.992188 0.000000 -15.664229 57.802284 -74.577995 112.902023 0.095542 5.577656 -13.667908 6.623165 2.962542 -4.598968 10.748483 13.573610 15.040002 -3.828950 8.956770 2.307045 -0.092932 -1.722649 7.245298 -2.207294 -12.905248 14.826034 3.747241 -19.503357 -10.423336 -0.385919 1.326565 
-0.499405 52.814938 0.859152 -8.223401 1.680316 10.512405 10.370935 -8.716507 -6.352993 14.033742 9.501181 8.289832 -8.796850 0.615122 1.093897 44.727467 0.907973 1.289365 1.992188 -2.001953 0.000341 -5.717423 -61.459072 -60.318672 -113.842209 -0.358866 5.350203 14.181974 -7.298685 -12.736746 -2.001953 1.992188 0.000000 -15.473222 57.771183 -74.384277 113.002464 0.118404 5.569002 -14.157588 6.311181 3.746884 -3.983533 11.476339 13.510185 15.521861 -3.840266 7.828739 1.722876 -0.131701 -2.560860 7.915633 -2.206603 -13.032903 14.348568 3.742929 -19.997248 -10.283938 -0.403682 1.534051 
-0.378284 52.826584 0.959406 -8.461604 1.800953 11.206923 10.370935 -8.716507 -6.352993 14.056129 9.520509 8.289835 -8.799459 0.546799 0.957081 44.743652 0.849437 1.152507 1.992188 -2.001953 0.000341 -4.968034 -61.837666 -61.021175 -114.225883 -0.382236 5.326344 14.157894 -6.520614 -12.751360 -2.001953 1.992188 0.000000 -15.277277 57.728703 -74.198402 113.093460 0.131297 5.561757 -14.657516 6.014423 4.536499 -3.388577 12.203056 13.454126 16.018408 -3.830208 6.701955 1.159474 -0.160150 -3.419412 8.575152 -2.185815 -13.197712 13.896446 3.745430 -20.470064 -10.143372 -0.387792 1.736097 
-0.271816 52.800095 1.057459 -8.681306 1.923577 11.491255 10.370935 -8.716507 -6.352993 14.101269 9.308137 8.273803 -8.798554 0.566317 1.015769 44.764610 0.868943 1.220859 1.992188 -2.001953 0.000341 -5.467823 -61.787209 -60.651546 -114.653587 -0.377104 5.341571 13.884274 -6.663208 -11.671832 -2.001953 1.992188 0.000000 -14.701113 57.840076 -73.592484 113.275482 0.147952 5.550479 -14.634935 6.334135 4.189923 -2.549060 13.056927 13.618928 15.906013 -3.827778 6.925256 1.491827 -0.328997 -4.349535 8.739041 -2.363061 -12.949524 14.400409 3.732547 -20.941315 -10.448416 -0.406078 2.095808 
-0.165348 52.773609 1.155511 -8.897790 2.055463 11.775311 10.370935 -8.716507 -6.352993 14.149506 9.105192 8.269113 -8.797509 0.585833 1.084127 44.785686 0.898214 1.279599 1.992188 -2.001953 0.000341 -5.965825 -61.734715 -60.282074 -115.071213 -0.389262 5.348268 13.600450 -6.799744 -10.589894 -2.001953 1.992188 0.000000 -14.120785 57.947849 -72.977798 113.467064 0.156381 5.544436 -14.614940 6.656724 3.853095 -1.690375 13.900667 13.809157 15.768374 -3.805562 7.152232 1.800396 -0.505626 -5.279799 8.886111 -2.529524 -12.720770 14.918335 3.733306 -21.390873 -10.732210 -0.437334 2.471359 
-0.004834 52.775921 1.205997 -8.505303 2.023034 12.273718 10.370935 -8.716507 -6.352993 13.632042 9.048762 8.198545 -8.812367 0.439412 0.781302 44.518761 0.995952 0.966990 1.992188 -2.001953 0.000341 -6.912339 -61.663208 -59.337788 -115.475792 -0.386046 5.375815 13.501667 -8.217013 -9.889425 -2.001953 1.992188 0.000000 -12.653233 57.676392 -71.983040 113.759331 0.178104 5.531099 -13.911798 6.882470 3.543296 -1.641445 14.434534 14.158113 15.678721 -3.818582 6.728558 1.680612 -0.485332 -5.482702 8.600755 -2.646271 -12.749986 14.926007 3.724255 -22.005978 -10.712725 -0.448829 2.779719 
0.155680 52.778225 1.256489 -8.113009 1.990484 12.781542 10.370935 -8.716507 -6.352993 13.106354 9.001967 8.129512 -8.835443 0.292959 0.478559 44.241119 1.103444 0.654552 1.992188 -2.001953 0.000341 -7.862289 -61.580891 -58.393864 -115.880661 -0.391467 5.397305 13.386981 -9.637418 -9.194268 -2.001953 1.992188 0.000000 -11.211846 57.391560 -71.015686 114.061272 0.200306 5.517965 -13.203662 7.095241 3.235071 -1.582224 14.980150 14.489640 15.573769 -3.815767 6.327404 1.578135 -0.470032 -5.687201 8.319468 -2.763884 -12.798203 14.929185 3.724209 -22.571951 -10.673489 -0.471873 3.071394 
0.310531 52.772087 1.313302 -7.662206 1.844287 13.229825 10.370935 -8.716507 -6.352993 12.675920 8.983718 8.079765 -8.856120 0.224606 0.332067 43.992844 1.035122 0.468850 1.992188 -2.001953 0.000341 -8.720634 -60.818703 -58.567616 -116.449837 -0.408175 5.389663 12.257617 -10.181566 -9.248439 -2.001953 1.992188 0.000000 -9.990371 57.084045 -70.691849 114.254128 0.216092 5.500768 -12.185240 7.202283 3.115292 -1.758032 15.693601 14.498106 15.184645 -3.834000 6.880046 1.951835 -0.587074 -5.772585 8.028658 -2.771653 -12.603900 14.760649 3.724545 -23.169628 -10.570925 -0.441645 3.366888 
0.465394 52.765953 1.370125 -7.213371 1.698431 13.687959 10.370935 -8.716507 -6.352993 12.253901 8.955786 8.028500 -8.876415 0.166015 0.185574 43.745396 0.976549 0.302857 1.992188 -2.001953 0.000341 -9.559669 -60.062374 -58.744537 -117.018555 -0.424728 5.381526 11.132202 -10.739160 -9.293371 -2.001953 1.992188 0.000000 -8.754024 56.768627 -70.355011 114.447037 0.222745 5.486737 -11.166097 7.317755 3.008784 -1.934842 16.388176 14.493351 14.818609 -3.837528 7.432600 2.306655 -0.718081 -5.841633 7.750901 -2.792299 -12.420336 14.601940 3.722318 -23.737480 -10.456737 -0.421454 3.667979 
